HIERARCHY
ROOT Hips
{
	OFFSET 0.000000 0.000000 0.000000
	CHANNELS 6 Xposition Yposition Zposition Zrotation Yrotation Xrotation 
	JOINT LHipJoint
	{
		OFFSET 0.000000 0.000000 0.000000
		CHANNELS 3 Zrotation Yrotation Xrotation
		JOINT LeftUpLeg
		{
			OFFSET 1.363060 -1.794630 0.839290
			CHANNELS 3 Zrotation Yrotation Xrotation
			JOINT LeftLeg
			{
				OFFSET 2.448110 -6.726130 0.000000
				CHANNELS 3 Zrotation Yrotation Xrotation
				JOINT LeftFoot
				{
					OFFSET 2.562200 -7.039590 0.000000
					CHANNELS 3 Zrotation Yrotation Xrotation
					JOINT LeftToeBase
					{
						OFFSET 0.157640 -0.433110 2.322550
						CHANNELS 3 Zrotation Yrotation Xrotation
						End Site
						{
							OFFSET 0.000000 0.000000 0.000000
						}
					}
				}
			}
		}
	}
	JOINT RHipJoint
	{
		OFFSET 0.000000 0.000000 0.000000
		CHANNELS 3 Zrotation Yrotation Xrotation
		JOINT RightUpLeg
		{
			OFFSET -1.305520 -1.794630 0.839290
			CHANNELS 3 Zrotation Yrotation Xrotation
			JOINT RightLeg
			{
				OFFSET -2.542530 -6.985550 0.000000
				CHANNELS 3 Zrotation Yrotation Xrotation
				JOINT RightFoot
				{
					OFFSET -2.568260 -7.056230 0.000000
					CHANNELS 3 Zrotation Yrotation Xrotation
					JOINT RightToeBase
					{
						OFFSET -0.164730 -0.452590 2.363150
						CHANNELS 3 Zrotation Yrotation Xrotation
						End Site
						{
							OFFSET 0.000000 0.000000 0.000000
						}
					}
				}
			}
		}
	}
	JOINT LowerBack
	{
		OFFSET 0.000000 0.000000 0.000000
		CHANNELS 3 Zrotation Yrotation Xrotation
		JOINT Spine
		{
			OFFSET 0.028270 2.035590 -0.193380
			CHANNELS 3 Zrotation Yrotation Xrotation
			JOINT Spine1
			{
				OFFSET 0.056720 2.048850 -0.042750
				CHANNELS 3 Zrotation Yrotation Xrotation
				JOINT Neck
				{
					OFFSET 0.000000 0.000000 0.000000
					CHANNELS 3 Zrotation Yrotation Xrotation
					JOINT Neck1
					{
						OFFSET -0.054170 1.746240 0.172020
						CHANNELS 3 Zrotation Yrotation Xrotation
						JOINT Head
						{
							OFFSET 0.104070 1.761360 -0.123970
							CHANNELS 3 Zrotation Yrotation Xrotation
							End Site
							{
								OFFSET 0.000000 0.000000 0.000000
							}
						}
					}
				}
				JOINT LeftShoulder
				{
					OFFSET 0.000000 0.000000 0.000000
					CHANNELS 3 Zrotation Yrotation Xrotation
					JOINT LeftArm
					{
						OFFSET 3.362410 1.200890 -0.311210
						CHANNELS 3 Zrotation Yrotation Xrotation
						JOINT LeftForeArm
						{
							OFFSET 4.983000 -0.000000 -0.000000
							CHANNELS 3 Zrotation Yrotation Xrotation
							JOINT LeftHand
							{
								OFFSET 3.483560 -0.000000 -0.000000
								CHANNELS 3 Zrotation Yrotation Xrotation
								JOINT LeftFingerBase
								{
									OFFSET 0.000000 0.000000 0.000000
									CHANNELS 3 Zrotation Yrotation Xrotation
									JOINT LeftHandIndex1
									{
										OFFSET 0.715260 -0.000000 -0.000000
										CHANNELS 3 Zrotation Yrotation Xrotation
										End Site
										{
											OFFSET 0.000000 0.000000 0.000000
										}
									}
								}
								JOINT LThumb
								{
									OFFSET 0.000000 0.000000 0.000000
									CHANNELS 3 Zrotation Yrotation Xrotation
									End Site
									{
										OFFSET 0.000000 0.000000 0.000000
									}
								}
							}
						}
					}
				}
				JOINT RightShoulder
				{
					OFFSET 0.000000 0.000000 0.000000
					CHANNELS 3 Zrotation Yrotation Xrotation
					JOINT RightArm
					{
						OFFSET -3.136600 1.374050 -0.404650
						CHANNELS 3 Zrotation Yrotation Xrotation
						JOINT RightForeArm
						{
							OFFSET -5.241900 -0.000000 -0.000000
							CHANNELS 3 Zrotation Yrotation Xrotation
							JOINT RightHand
							{
								OFFSET -3.444170 -0.000000 -0.000000
								CHANNELS 3 Zrotation Yrotation Xrotation
								JOINT RightFingerBase
								{
									OFFSET 0.000000 0.000000 0.000000
									CHANNELS 3 Zrotation Yrotation Xrotation
									JOINT RightHandIndex1
									{
										OFFSET -0.622530 -0.000000 -0.000000
										CHANNELS 3 Zrotation Yrotation Xrotation
										End Site
										{
											OFFSET 0.000000 0.000000 0.000000
										}
									}
								}
								JOINT RThumb
								{
									OFFSET 0.000000 0.000000 0.000000
									CHANNELS 3 Zrotation Yrotation Xrotation
									End Site
									{
										OFFSET 0.000000 0.000000 0.000000
									}
								}
							}
						}
					}
				}
			}
		}
	}
}
MOTION
Frames: 10
Frame Time: 0.008333
0.451433 18.061509 0.400843 70.661646 88.081345 91.785669 -2.416233 0.511703 1.397908 -17.894513 -1.474007 -31.075032 1.291821 4.827703 15.637410 0.289103 0.555391 6.448181 2.400100 -9.653900 -27.863100 -2.092469 -3.311367 1.993005 17.318648 7.373852 -26.963786 -1.244688 -3.446027 11.282350 -0.314290 2.819303 2.608203 -0.255800 3.254100 -8.987100 2.990381 -1.925601 -1.516556 0.172804 -2.416928 8.671384 -2.806334 -1.524472 1.891017 -0.074587 -0.370516 -24.957450 3.846186 -0.004681 12.330964 -1.221000 0.458100 8.115100 -1.037859 -3.737648 2.853237 -127.145241 -75.282967 63.175080 41.622744 -48.999586 -16.879331 -1.606221 1.604529 -77.851896 22.208797 27.562815 9.458600 -7.125000 0.000000 0.000000 -9.745700 57.034300 -2.892400 4.486174 4.735153 3.363085 140.004355 76.083462 83.546302 -35.700453 52.986082 -13.724837 -0.876101 -4.015587 -62.440988 -41.791209 -0.039796 -1.191900 7.125000 0.000000 0.000000 -8.697600 -27.999900 -3.634900 
0.453181 18.061898 0.401037 70.800686 88.149147 91.911054 -2.406769 0.517715 1.398040 -17.792938 -1.544858 -31.028524 1.290897 4.828777 15.636328 0.274095 0.623257 6.421536 2.379600 -9.615700 -27.741000 -2.085139 -3.308798 1.991368 17.383990 7.388661 -26.907962 -1.242686 -3.433209 11.251630 -0.310829 2.784877 2.625010 -0.268200 3.331400 -9.202800 2.996503 -1.913876 -1.498523 0.285853 -2.401824 8.678095 -2.794067 -1.515105 1.878568 -0.153429 -0.394937 -24.950250 3.847341 -0.014951 12.327063 -1.212200 0.448800 8.111900 -1.045347 -3.740789 2.843954 -127.224082 -75.210148 63.259836 41.613270 -48.994533 -16.874459 -1.609197 1.618380 -77.861270 22.404611 27.641814 9.573100 -7.125000 0.000000 0.000000 -9.587300 57.151000 -2.871800 4.477079 4.734200 3.369051 139.959530 76.031461 83.394037 -35.689418 52.976027 -13.718331 -0.875085 -4.010059 -62.506490 -41.687620 0.065261 -1.265200 7.125000 0.000000 0.000000 -8.609800 -27.877900 -3.622500 
0.454444 18.061121 0.400357 70.628364 88.123110 91.745213 -2.407442 0.514529 1.397256 -17.817563 -1.538814 -31.034572 1.292402 4.830644 15.646885 0.285843 0.565809 6.416184 2.298000 -9.461000 -27.248300 -2.086927 -3.310822 1.990896 17.346444 7.421167 -26.870148 -1.237728 -3.415307 11.198412 -0.302845 2.701448 2.645160 -0.253100 3.237200 -8.939900 2.937792 -1.914909 -1.496080 0.320375 -2.402813 8.674095 -2.757053 -1.516770 1.874055 -0.132355 -0.390791 -24.991950 3.770170 -0.001963 12.380917 -1.233400 0.451100 8.134100 -1.050692 -3.738376 2.839236 -127.237599 -75.188784 63.228491 41.554187 -48.958566 -16.831858 -1.609373 1.618900 -77.905869 22.418478 27.617361 9.570900 -7.125000 0.000000 0.000000 -9.563300 57.129500 -2.859600 4.471535 4.735025 3.373894 139.976933 75.950354 83.312682 -35.692245 52.980838 -13.723397 -0.879873 -4.015745 -62.622343 -41.783532 0.139615 -1.322400 7.125000 0.000000 0.000000 -8.667700 -27.789000 -3.665800 
0.454929 18.061412 0.400648 70.504735 88.114129 91.600741 -2.405798 0.513861 1.396640 -17.813769 -1.552977 -31.001091 1.292974 4.832284 15.651069 0.275074 0.610822 6.374175 2.314200 -9.492000 -27.346800 -2.084771 -3.311622 1.990718 17.334903 7.423241 -26.844059 -1.237455 -3.414915 11.196012 -0.302695 2.698789 2.641272 -0.252000 3.230100 -8.919900 2.864118 -1.903465 -1.455898 0.399560 -2.385925 8.672894 -2.702143 -1.509231 1.843077 -0.133728 -0.378774 -24.966500 3.691193 0.022237 12.398188 -1.251300 0.455600 8.136700 -1.057040 -3.744079 2.816100 -127.415874 -75.097663 63.272973 41.521267 -48.945032 -16.811088 -1.614674 1.625293 -77.937393 22.512375 27.706920 9.642600 -7.125000 0.000000 0.000000 -9.510300 57.235200 -2.867900 4.463492 4.732745 3.387403 139.885918 75.931870 83.185723 -35.644249 52.943113 -13.692718 -0.876518 -4.027339 -62.799084 -41.849695 0.140154 -1.322800 7.125000 0.000000 0.000000 -8.709300 -27.790600 -3.683400 
0.456289 18.061995 0.401037 71.235470 88.157327 92.379338 -2.386265 0.526439 1.395139 -17.805700 -1.561006 -31.052894 1.292446 4.832274 15.649678 0.290755 0.547308 6.452142 2.330000 -9.522000 -27.442100 -2.065873 -3.296471 1.988369 17.343207 7.440206 -26.899840 -1.239930 -3.429578 11.238674 -0.301242 2.680282 2.596818 -0.248700 3.209000 -8.861200 2.854178 -1.895703 -1.477548 0.491009 -2.380758 8.637845 -2.675923 -1.506225 1.833825 -0.175269 -0.416357 -25.042909 3.674889 -0.002285 12.553407 -1.248600 0.448400 8.189500 -1.068909 -3.735180 2.799222 -127.545949 -74.994303 63.309734 41.424877 -48.888243 -16.743915 -1.611668 1.618490 -77.965751 22.415227 27.636789 9.575100 -7.125000 0.000000 0.000000 -9.577100 57.148000 -2.868000 4.453161 4.740789 3.405684 139.790215 75.914336 83.037634 -35.613037 52.914918 -13.669899 -0.862256 -4.042542 -62.914748 -41.872802 -0.007197 -1.214600 7.125000 0.000000 0.000000 -8.736500 -27.965400 -3.658700 
0.458133 18.061703 0.400066 71.346874 88.114505 92.545638 -2.382771 0.526635 1.390782 -17.889404 -1.541492 -31.107583 1.293778 4.832310 15.652911 0.298061 0.513886 6.463603 2.385100 -9.626000 -27.773900 -2.059797 -3.291496 1.989918 17.280046 7.431451 -27.005218 -1.245061 -3.456148 11.306249 -0.308536 2.751208 2.575514 -0.265300 3.313500 -9.152900 2.790002 -1.876671 -1.512961 0.530214 -2.360018 8.595131 -2.635617 -1.496927 1.830959 -0.233666 -0.433800 -24.994657 3.671111 -0.012108 12.554887 -1.242800 0.440400 8.182800 -1.072630 -3.740350 2.778777 -127.692967 -74.861733 63.324463 41.306430 -48.818022 -16.661148 -1.607055 1.610842 -77.956818 22.288447 27.558309 9.491800 -7.125000 0.000000 0.000000 -9.669800 57.046700 -2.872500 4.452238 4.736918 3.415894 139.749209 75.914918 82.982021 -35.488886 52.827341 -13.596269 -0.879137 -4.046025 -63.082243 -41.976740 0.187411 -1.355400 7.125000 0.000000 0.000000 -8.784000 -27.742500 -3.725800 
0.460076 18.061218 0.399192 71.783496 88.101721 93.037408 -2.371323 0.531114 1.388015 -17.991511 -1.439479 -31.214754 1.294655 4.834922 15.660871 0.315330 0.436873 6.489269 2.427900 -9.705600 -28.028400 -2.048408 -3.281132 1.987973 17.241368 7.420253 -27.089557 -1.248412 -3.475118 11.355659 -0.311184 2.775081 2.556119 -0.263700 3.303500 -9.125000 2.753995 -1.863496 -1.540059 0.581098 -2.349046 8.528415 -2.607565 -1.490528 1.825722 -0.241651 -0.421052 -24.886822 3.603241 0.004325 12.501920 -1.260600 0.438600 8.152700 -1.076774 -3.744641 2.766084 -127.696322 -74.754595 63.223732 41.230337 -48.769578 -16.607422 -1.614077 1.608350 -77.976424 22.247594 27.638018 9.498300 -7.125000 0.000000 0.000000 -9.744900 57.113500 -2.910800 4.448601 4.725669 3.436969 139.566583 75.872144 82.794133 -35.445571 52.791475 -13.570282 -0.893328 -4.055017 -63.290378 -42.183494 0.351469 -1.481600 7.125000 0.000000 0.000000 -8.909300 -27.548700 -3.821400 
0.461435 18.062577 0.398803 72.245053 88.101070 93.508873 -2.360025 0.537873 1.387201 -18.027725 -1.411367 -31.233654 1.294455 4.835641 15.661727 0.329889 0.369876 6.491217 2.441000 -9.729900 -28.106400 -2.036921 -3.270929 1.982482 17.227624 7.383902 -27.106428 -1.250828 -3.486003 11.386592 -0.312690 2.790869 2.547641 -0.265700 3.315700 -9.159000 2.708988 -1.867106 -1.518114 0.641716 -2.356155 8.467125 -2.571641 -1.493768 1.789286 -0.199233 -0.396318 -24.838086 3.500760 0.035200 12.532156 -1.291200 0.447400 8.155800 -1.084904 -3.743397 2.754275 -127.734694 -74.661883 63.083476 41.134963 -48.711561 -16.538770 -1.616568 1.611820 -77.950870 22.266310 27.679026 9.519200 -7.125000 0.000000 0.000000 -9.745100 57.155400 -2.920800 4.443291 4.723716 3.444627 139.586973 75.745658 82.633400 -35.365199 52.735974 -13.521461 -0.881354 -4.071708 -63.278745 -42.170668 0.153017 -1.335100 7.125000 0.000000 0.000000 -8.915200 -27.782000 -3.774300 
0.462115 18.062674 0.398512 72.716111 88.136785 93.964954 -2.348096 0.547974 1.388156 -17.973028 -1.458265 -31.182251 1.291267 4.829793 15.639821 0.329938 0.370692 6.488299 2.344800 -9.550100 -27.531600 -2.024886 -3.260917 1.979321 17.239616 7.412629 -27.089028 -1.252414 -3.496380 11.419213 -0.306999 2.728010 2.520606 -0.269200 3.337400 -9.219700 2.694071 -1.873855 -1.474734 0.722477 -2.364639 8.451027 -2.550370 -1.496299 1.748873 -0.219711 -0.407836 -24.821591 3.470052 0.029205 12.555899 -1.298500 0.442000 8.160700 -1.092121 -3.741729 2.741074 -127.840160 -74.603337 62.983559 40.999986 -48.631511 -16.443554 -1.625685 1.606802 -77.882108 22.120485 27.794614 9.487800 -7.125000 0.000000 0.000000 -9.941700 57.232700 -2.999100 4.438424 4.724989 3.432730 139.793845 75.641632 82.644641 -35.174624 52.611319 -13.409056 -0.878630 -4.060670 -63.222885 -41.802643 0.240215 -1.383200 7.125000 0.000000 0.000000 -8.633800 -27.689600 -3.671600 
0.462989 18.061898 0.398900 73.254807 88.185862 94.484252 -2.331504 0.558038 1.392468 -17.977756 -1.372041 -31.197613 1.286537 4.819995 15.608906 0.351100 0.276959 6.534104 2.366800 -9.591600 -27.664200 -2.008426 -3.249275 1.977216 17.268973 7.417602 -27.073505 -1.255448 -3.507164 11.455728 -0.309410 2.752915 2.469268 -0.275500 3.375800 -9.326800 2.645537 -1.879997 -1.457315 0.851584 -2.374762 8.458861 -2.502597 -1.499476 1.733664 -0.282015 -0.415504 -24.801191 3.481891 0.036913 12.591079 -1.284700 0.445700 8.167800 -1.099233 -3.740578 2.716016 -127.993607 -74.529966 62.987938 40.872317 -48.556915 -16.352334 -1.607104 1.608076 -77.784449 22.081226 27.570244 9.397900 -7.125000 0.000000 0.000000 -9.884900 57.011600 -2.928800 4.425943 4.725393 3.447135 139.727136 75.560659 82.487286 -35.133447 52.578825 -13.379085 -0.857942 -4.037964 -63.340099 -41.255624 0.431718 -1.500400 7.125000 0.000000 0.000000 -8.216300 -27.474700 -3.532700 
